<svg xmlns="http://www.w3.org/2000/svg" version="1.1" xmlns:xlink="http://www.w3.org/1999/xlink" xmlns:svgjs="http://svgjs.dev/svgjs" width="2000" height="1247" viewBox="0 0 2000 1247"><g transform="matrix(1,0,0,1,-1.2121212121212466,0.504858299595071)"><svg viewBox="0 0 396 247" data-background-color="#fafafa" preserveAspectRatio="xMidYMid meet" height="1247" width="2000" xmlns="http://www.w3.org/2000/svg" xmlns:xlink="http://www.w3.org/1999/xlink"><g id="tight-bounds" transform="matrix(1,0,0,1,0.2400000000000091,-0.09999999999999432)"><svg viewBox="0 0 395.52 247.2" height="247.2" width="395.52"><g><svg></svg></g><g><svg viewBox="0 0 395.52 247.2" height="247.2" width="395.52"><mask id="0074b483-fae4-40ed-b768-9c07c0ab7e4b"><rect width="640" height="400" fill="white"></rect><g transform="matrix(1,0,0,1,162.1545200748309,37.08)"><svg viewBox="0 0 71.21095985033817 173.04" height="173.04" width="71.21095985033817"><g><svg viewBox="0 0 71.21095985033817 173.04" height="173.04" width="71.21095985033817"><g><svg viewBox="0 0 71.21095985033817 173.04" height="173.04" width="71.21095985033817"><g><svg viewBox="0 0 71.21095985033817 173.04" height="173.04" width="71.21095985033817"><g id="SvgjsG1814"><svg viewBox="0 0 71.21095985033817 173.04" height="173.04" width="71.21095985033817" id="SvgjsSvg1813"><g><svg viewBox="0 0 71.21095985033817 173.04" height="173.04" width="71.21095985033817"><g transform="matrix(1,0,0,1,0,0)"><svg width="71.21095985033817" viewBox="2.25 -43.26 20.55 48.51" height="173.04" data-palette-color="#610fdb"><path d="M6.25-35.77L6.25-39.26 18.8-39.26 18.8-35.77 14.6-35.77 14.6-2.25 18.8-2.25 18.8 1.25 6.25 1.25 6.25-2.25 10.45-2.25 10.45-35.77 6.25-35.77Z" opacity="1" transform="matrix(1,0,0,1,0,0)" fill="black" class="wordmark-text-0" id="SvgjsPath1812" stroke-width="7" stroke="black" stroke-linejoin="round"></path></svg></g></svg></g></svg></g></svg></g></svg></g></svg></g></svg></g></mask><g transform="matrix(1,0,0,1,162.1545200748309,37.08)"><svg viewBox="0 0 71.21095985033817 173.04" height="173.04" width="71.21095985033817"><g><svg viewBox="0 0 71.21095985033817 173.04" height="173.04" width="71.21095985033817"><g><svg viewBox="0 0 71.21095985033817 173.04" height="173.04" width="71.21095985033817"><g><svg viewBox="0 0 71.21095985033817 173.04" height="173.04" width="71.21095985033817"><g id="textblocktransform"><svg viewBox="0 0 71.21095985033817 173.04" height="173.04" width="71.21095985033817" id="textblock"><g><svg viewBox="0 0 71.21095985033817 173.04" height="173.04" width="71.21095985033817"><g transform="matrix(1,0,0,1,0,0)"><svg width="71.21095985033817" viewBox="2.25 -43.26 20.55 48.51" height="173.04" data-palette-color="#610fdb"><path d="M6.25-35.77L6.25-39.26 18.8-39.26 18.8-35.77 14.6-35.77 14.6-2.25 18.8-2.25 18.8 1.25 6.25 1.25 6.25-2.25 10.45-2.25 10.45-35.77 6.25-35.77Z" opacity="1" transform="matrix(1,0,0,1,0,0)" fill="#610fdb" class="wordmark-text-0" data-fill-palette-color="primary" id="text-0"></path></svg></g></svg></g></svg></g></svg></g></svg></g></svg></g></svg></g><g mask="url(#0074b483-fae4-40ed-b768-9c07c0ab7e4b)"><g transform="matrix(2.8750149185908915, 0, 0, 2.8750149185908915, 68.38374101810399, 1)"><svg xmlns="http://www.w3.org/2000/svg" xml:space="preserve" viewBox="4.999844247769118 7.3569167189123235 90.00040879461326 85.28651396361377" x="0" y="0" height="85.28651396361377" width="90.00040879461326" class="icon-none" data-fill-palette-color="accent" id="none"><path d="M23.867 92.104a29 29 0 0 1-1.436-1.051c-0.601-0.489-0.012-1.642 0.748-1.372 14.098 4.743 28.059 3.503 41.719-2.517 1.057-0.468 7.475-3.727 13.234-6.543-14.83 0.352-31.15-12.31-40.228-21.505-10.01-10.145-21.56-28.307-16.97-42.846-5.91 7.764-10.597 16.384-13.553 25.762-3.997 12.649-2.473 23.914 0.973 35.973 0.858 0.112 1.679 1.055 1.213 2.101-0.143 0.31-0.223 0.604-0.329 0.902 0.099 0.315 0.199 0.63 0.285 0.959 0.241 0.77-0.301 1.346-0.921 1.481-1.047 7.662 7.985 10.489 15.265 8.656m-8.116-50.881c-0.793 0.711-0.709 2.595-0.781 3.54-0.065 0.754-1.085 0.786-1.17 0.037-0.174-1.497-0.26-3.8 1.161-4.789 1.445-1.013 3.055 0.299 4.042 1.326 0.55 0.57-0.227 1.372-0.827 0.879-0.43-0.355-1.805-1.571-2.425-0.993m3.873 10.554c0.698-0.086 1.121-0.404 1.458-1.027 0.653-1.141 0.799-2.534-0.847-2.648-0.792-0.053-0.878-1.22-0.051-1.259 0.929-0.042 1.774 0.135 2.395 0.84 0.661 0.744 0.783 1.772 0.48 2.675-0.574 1.635-1.541 2.901-3.389 2.895-0.956-0.009-0.973-1.357-0.046-1.476m-6.666-0.456c-1.266-0.151-1.943 0.178-1.915 1.488 0.018 1.351 0.521 2.761 0.89 4.048 0.313 1.01-1.114 1.374-1.514 0.456-0.754-1.746-1.641-4.036-0.911-5.946 0.622-1.636 2.273-1.816 3.798-1.572 1 0.175 0.624 1.65-0.348 1.526M39.97 73.778c0.047 0.764-0.804 1.273-0.881 2.015-0.086 0.906-1.518 0.722-1.544-0.144-0.015-0.408 0.087-0.806 0.228-1.166-0.075 0.004-0.138-0.009-0.204 0.006-0.8 0.014-1.547 0.151-1.971 0.891-0.375 0.662-0.591 1.446-0.9 2.143-0.345 0.788-1.444 0.273-1.34-0.492 0.181-1.142 0.256-2.377 1.028-3.309 0.848-1.03 2.22-1.202 3.479-1.229 0.891-0.002 2.006 0.232 2.105 1.285m0.026 9.413c0.978-0.068 1.91-0.009 2.87 0.125 0.909 0.138 1.346-0.142 1.806-0.922a3 3 0 0 0 0.174-0.526c-0.19 0.043-0.378 0.088-0.583 0.095-0.84 0.001-1.153-1.377-0.239-1.534 0.697-0.112 1.068-0.849 1.794-0.86 1.324-0.04 1.099 1.726 0.997 2.542-0.183 1.459-1.085 2.813-2.507 3.277-1.351 0.437-2.898-0.151-4.25-0.211-1.275-0.062-1.346-1.881-0.062-1.986m-11.012 4.281c1.505-0.684 3.42-1.38 4.213-2.908-0.712-0.742-1.459-1.445-2.53-1.487-0.971-0.046-1.039-1.473-0.047-1.503 1.782-0.056 3.012 1.001 4.296 2.134 0.224 0.185 0.375 0.574 0.269 0.872-0.95 2.588-3.098 3.51-5.599 4.251-0.783 0.226-1.381-1.002-0.602-1.359M89.183 73.04c15.837-10.497-4.804-33.813-12.93-41.864C65.684 20.704 46.705 5.322 30.329 7.58a2 2 0 0 1-0.281 0.403c-15.653 15.167-2.137 36.26 10.101 48.745 11.289 11.518 32.81 27.09 49.034 16.312M44.09 30.016c0.285 0.984-1.08 1.31-1.465 0.429-2.521-5.704-4.456-11.72-9.125-16.008-2.715 2.786-4.757 6.379-3.726 10.387 1.291 5.015 7.284 5.184 11.425 4.876 1.73-0.13 1.708 2.393 0.07 2.636-5.184 0.812-11.008-0.853-13.432-5.873-2.55-5.334 0.992-11.077 4.671-14.784 0.556-0.566 1.284-0.499 1.885-0.06 6.074 4.448 7.775 11.527 9.697 18.397m7.023 2.622c1.274 0.826 2.855 0.828 4.198 0.213 0.792-0.368 1.513 0.754 0.726 1.175-1.453 0.784-3.112 1.103-4.685 0.49-1.483-0.577-3.427-2.007-3.556-3.71-0.026-0.421 0.522-0.819 0.898-0.563 0.953 0.669 1.416 1.751 2.419 2.395m10.859-8.876c0.563 0.505 0.506 1.563-0.21 1.93-2.667 1.423-5.827 3.419-8.909 2.23-0.966-0.364-0.492-1.845 0.439-1.861 2.15-0.055 3.897-0.735 5.692-1.645-3.681-3.211-7.701-5.899-12.063-8.12 0.324 4.604 2.638 8.581 4.979 12.561 0.456 0.748-0.584 1.673-1.204 0.992-3.93-4.259-6.682-9.537-6.141-15.452 0.088-0.881 0.858-1.491 1.725-1.073 5.755 2.762 10.982 6.141 15.692 10.438m-0.088 16.768c-0.964-0.682-0.186-2.3 0.878-1.67 8.068 4.666 14.099 12.183 22.531 16.149-0.914-10.521-13.064-21.758-23.562-18.079-0.905 0.334-1.471-1.038-0.67-1.521 12.254-7.313 27.506 9.459 26.709 21.432-0.057 0.959-0.896 1.481-1.773 1.125-9.472-3.882-15.883-11.705-24.113-17.436m-6.316 6.223c0.447-1.581 2.925-1.007 2.49 0.586-0.046 0.153-0.066 0.308-0.114 0.462 10.385-0.377 23.208 10.878 28.682 18.44 0.465 0.635 0.123 1.524-0.462 1.913-14.629 9.655-35.476-3.973-30.596-21.401m-11.513 9.419c-5.407-5.104-9.816-10.776-11.688-18.093-0.233-0.911 0.519-1.736 1.455-1.549 2.665 0.502 5.264 1.313 7.609 2.577-0.115-0.404 0.061-0.88 0.556-1.011-0.053-0.026-0.104-0.023-0.155-0.045-0.466-0.216-0.45-0.917-0.038-1.173 1.103-0.669 2.488-0.355 3.45-1.305 0.928-0.881 0.566-2.704 0.353-3.793-0.153-0.862 1.131-1.311 1.363-0.401 0.408 1.646 0.803 3.646-0.272 5.13-0.537 0.756-1.436 1.346-2.394 1.628 2.839 0.371 6.03 1.762 6.896 4.282 2.266-1.357 5.064-1.815 7.348-0.93a19.5 19.5 0 0 1-0.953-2.773c-0.415-1.502-1.373-3.614-0.578-5.063 0.362-0.651 1.253-0.652 1.654-0.055 0.695 1.048 0.423 2.473 0.534 3.692 0.177 1.918 0.939 3.921 1.782 5.626a0.9 0.9 0 0 1 0.079 0.468c0.387 0.512 0.723 1.098 0.975 1.805 0.388 1.034-0.922 1.558-1.65 1.02-1.554-1.162-2.935-2.559-4.963-2.685-1.366-0.072-2.718 0.291-4.028 0.762a5 5 0 0 1-0.184 1.013c-0.209 0.697-1.342 1.088-1.697 0.283-0.137-0.276-0.234-0.54-0.345-0.818a0.62 0.62 0 0 1-0.153-0.39c-0.334-0.932-0.656-1.852-1.393-2.619-1.319-1.386-3.232-1.875-5.082-2.006 1.193 0.751 2.304 1.624 3.306 2.686 0.646 0.706-0.176 2.108-1.062 1.474-3.011-2.135-5.961-3.649-9.416-4.521 1.891 5.483 5.308 10.027 9.412 14.154 2.015-2.728 2.087-5.328 1.111-8.813-0.299-1.048 1.178-1.439 1.579-0.47 1.912 4.539 1.541 8.118-1.732 11.863-0.417 0.495-1.233 0.495-1.679 0.05m39.334 10.412c-6.512-8.164-16.12-13.585-25.761-17.156-2.094 13.724 13.725 23.788 25.761 17.156" fill="#e94930" data-fill-palette-color="accent"></path></svg></g></g></svg></g><defs></defs></svg><rect width="395.52" height="247.2" fill="none" stroke="none" visibility="hidden"></rect></g></svg></g></svg>