<svg xmlns="http://www.w3.org/2000/svg" version="1.1" xmlns:xlink="http://www.w3.org/1999/xlink" xmlns:svgjs="http://svgjs.dev/svgjs" width="2000" height="1283" viewBox="0 0 2000 1283"><g transform="matrix(1,0,0,1,1.2137755393569023,0.5194331983805114)"><svg viewBox="0 0 385 247" data-background-color="#ffa96a" preserveAspectRatio="xMidYMid meet" height="1283" width="2000" xmlns="http://www.w3.org/2000/svg" xmlns:xlink="http://www.w3.org/1999/xlink"><g id="tight-bounds" transform="matrix(1,0,0,1,-0.23365179132619573,-0.09999999999999432)"><svg viewBox="0 0 385.4673035826524 247.2" height="247.2" width="385.4673035826524"><g><svg viewBox="0 0 385.4673035826524 247.2" height="247.2" width="385.4673035826524"><g><svg viewBox="0 0 385.4673035826524 247.2" height="247.2" width="385.4673035826524"><g id="textblocktransform"><svg viewBox="0 0 385.4673035826524 247.2" height="247.2" width="385.4673035826524" id="textblock"><g><svg viewBox="0 0 385.4673035826524 247.2" height="247.2" width="385.4673035826524"><rect width="385.4673035826524" height="247.2" x="0" y="0" opacity="1" fill="#000000" data-fill-palette-color="tertiary"></rect><g transform="matrix(1,0,0,1,23.607599999999998,23.607600000000012)"><svg width="338.2521035826524" viewBox="3.15 -38.84 65.69999999999999 38.84" height="199.98479999999998" data-palette-color="#ffa96a"><path d="M19.56-8.59L23.44-8.59 23.44 0 3.15 0 3.15-8.59 7.06-8.59 7.06-30.25 3.15-30.25 3.15-38.84 23.44-38.84 23.44-30.25 19.56-30.25 19.56-8.59ZM48.53-8.59L48.53 0 28.24 0 28.24-8.59 32.15-8.59 32.15-30.25 28.24-30.25 28.24-38.84 53.2-38.84Q59.25-38.84 62.09-36.4 64.94-33.96 64.94-28.3L64.94-28.3Q64.94-24.51 62.81-22.46 60.69-20.41 56.78-19.7L56.78-19.7Q60.3-19.14 61.85-17.07 63.4-14.99 63.4-11.89L63.4-11.89 63.4-8.74 68.85-8.74 68.85 0 60.98 0Q58.47 0 56.93-0.18 55.39-0.37 54.5-1.06 53.61-1.76 53.02-3.25L53.02-3.25Q52.15-5.49 52.15-10.74L52.15-10.74Q52.15-13.75 51.17-15.2 50.19-16.65 47.6-16.65L47.6-16.65 44.65-16.65 44.65-8.59 48.53-8.59ZM48.48-30.25L44.65-30.25 44.65-22.19 48-22.19Q50.66-22.19 51.95-23.14 53.24-24.1 53.24-26.49L53.24-26.49Q53.24-28.25 51.91-29.25 50.58-30.25 48.48-30.25L48.48-30.25Z" opacity="1" transform="matrix(1,0,0,1,0,0)" fill="#ffa96a" class="wordmark-text-0" data-fill-palette-color="quaternary" id="text-0"></path></svg></g></svg></g></svg></g></svg></g></svg></g><defs></defs></svg><rect width="385.4673035826524" height="247.2" fill="none" stroke="none" visibility="hidden"></rect></g></svg></g></svg>